<?xml version="1.0" encoding="UTF-8"?>
<svg xmlns="http://www.w3.org/2000/svg" viewBox="0 0 794.02 449.34">
  <defs>
    <style>
      .cls-1 {
        fill: #fff;
      }

      .cls-2 {
        fill: #2d2053;
      }

      .cls-3 {
        fill: #462d7a;
      }

      .cls-4 {
        stroke: #2c1e50;
      }

      .cls-4, .cls-5 {
        stroke-miterlimit: 10;
      }

      .cls-5 {
        stroke: #fff;
      }

      .cls-6 {
        fill: #181127;
      }
    </style>
  </defs>
  <g id="Layer_2" data-name="Layer 2">
    <path class="cls-3" d="M157.78,328.03c14.93,10.84,39.31-.17,41.84-1.23,17.72-7.43,29.58-23.57,49.21-50.87,13.76-19.14,15.81-25.23,20.91-24.94,15.15,.87,11.81,53.95,44.44,73.73,9.91,6.01,26.49,9.9,36.77,3.3,38.25-24.54,5.94-204.91-77.79-226.32-5-1.28-17.72-3.92-33.51,0-22.2,5.51-36.13,19.6-42.39,26.14-42.45,44.34-78.04,172.18-39.49,200.18Z"/>
  </g>
  <g id="Layer_7" data-name="Layer 7">
    <path class="cls-2" d="M204.07,121.19c-1.95,2.08-2.59,2.62-4.05,4.07-3.72,3.69-6.99,6.64-7.27,7.66-2.34,8.62,150,55.54,152.87,47.02,.21-.62-.7-2.8-2.53-7.15,0,0-1.6-3.8-3.52-7.29-25.29-45.91-48.81-56.9-48.81-56.9-42.56-19.27-85.38,11.19-86.69,12.6Z"/>
  </g>
  <g id="Layer_9" data-name="Layer 9">
    <path class="cls-4" d="M351.37,193.16c-5.77-11.54-85.59,16.83-154.76,27.39-21.09,3.22-38.13,4.31-47.3,4.75-.74,2.91-1.76,7.02-2.87,11.97-1.93,8.6-2.89,12.89-2.6,13.78,3.3,9.95,59.73-.88,99.18-7.64,32.67-5.6,115.14-18.96,114.61-30.77-.03-.69-1.11-4.01-3.27-10.65-1.78-5.47-2.67-8.2-2.98-8.83Z"/>
  </g>
  <g id="Layer_6" data-name="Layer 6">
    <path class="cls-1" d="M253.58,138.31c-27.39-.52-46.38,38.21-37.98,54.55,10.09,19.62,65.5,18.26,74.77-3.3,7.21-16.78-11.38-50.77-36.79-51.24Z"/>
  </g>
  <g id="Layer_4" data-name="Layer 4">
    <path d="M151,82.48c-6.55,27.74,252.45,113.97,267.56,89.66,9.24-14.87-64.9-83.62-163.53-97.57-39.06-5.52-100.95-5.14-104.03,7.91Z"/>
  </g>
  <g id="Layer_5" data-name="Layer 5">
    <path class="cls-5" d="M221.03,89.73c.41-5.25,6.51-5.74,28.85-19.42,26.97-16.51,28.85-22.38,56.86-40.83,30.07-19.81,48.46-31.94,54.82-26.61,9.72,8.15-25.18,43.33-21.31,99.35,.87,12.61,3.12,17.79-.86,23.01-18.25,23.95-120.07-13.68-118.35-35.5Z"/>
    <path class="cls-6" d="M791.6,449.34c3.22,0,3.22-5,0-5s-3.22,5,0,5h0Z"/>
  </g>
</svg>